<svg xmlns="http://www.w3.org/2000/svg" xmlns:xlink="http://www.w3.org/1999/xlink" width="500" zoomAndPan="magnify" viewBox="0 0 375 374.999991" height="500" preserveAspectRatio="xMidYMid meet" version="1.0"><defs><g/><clipPath id="5e965483ef"><path d="M 154 95.320312 L 200 95.320312 L 200 245.320312 L 154 245.320312 Z M 154 95.320312 " clip-rule="nonzero"/></clipPath><clipPath id="178ba73066"><path d="M 2 0.519531 L 16 0.519531 L 16 19 L 2 19 Z M 2 0.519531 " clip-rule="nonzero"/></clipPath><clipPath id="f041e235b3"><path d="M 17 0.519531 L 36 0.519531 L 36 19 L 17 19 Z M 17 0.519531 " clip-rule="nonzero"/></clipPath><clipPath id="9b19ebf6d7"><path d="M 62 0.519531 L 80 0.519531 L 80 19 L 62 19 Z M 62 0.519531 " clip-rule="nonzero"/></clipPath><clipPath id="48a2731c83"><path d="M 108 0.519531 L 127 0.519531 L 127 19 L 108 19 Z M 108 0.519531 " clip-rule="nonzero"/></clipPath><clipPath id="e3c9911bdf"><path d="M 128 0.519531 L 147 0.519531 L 147 19 L 128 19 Z M 128 0.519531 " clip-rule="nonzero"/></clipPath><clipPath id="23ee19028c"><rect x="0" width="168" y="0" height="23"/></clipPath><clipPath id="d1aaa70cc8"><rect x="0" width="255" y="0" height="11"/></clipPath></defs><path fill="#1a1a1a" d="M 241.46875 164.269531 C 246.253906 159.535156 235.574219 154.460938 228.589844 148.585938 C 222.617188 143.5625 219.3125 140.605469 219.257812 136.832031 C 218.964844 116.710938 209.769531 105.351562 200.707031 99.945312 C 201.113281 100.699219 201.472656 101.492188 201.785156 102.324219 C 206.023438 113.648438 201.800781 127.492188 189.234375 143.488281 C 189.589844 147.550781 189.992188 151.960938 190.4375 156.6875 C 199.164062 156.957031 207.269531 160.191406 213.363281 165.875 C 219.953125 172.019531 223.582031 180.460938 223.582031 189.648438 C 223.582031 202.621094 216.363281 213.933594 205.738281 219.785156 C 212.835938 221.601562 217.367188 223.820312 221.492188 223.058594 C 230.769531 221.335938 229.296875 213.246094 228.640625 208.871094 C 227.988281 204.5 230.496094 201.03125 234.699219 198.871094 C 238.902344 196.710938 238.464844 192.09375 235.710938 190.945312 C 232.953125 189.796875 227.90625 188.292969 229.898438 185.753906 C 232.03125 183.03125 238.109375 182.199219 238.984375 179.21875 C 239.855469 176.242188 233.363281 174.765625 233.992188 172.085938 C 234.773438 168.746094 238.488281 167.21875 241.46875 164.269531 Z M 241.46875 164.269531 " fill-opacity="1" fill-rule="nonzero"/><path fill="#1a1a1a" d="M 210.484375 168.976562 C 204.898438 163.765625 197.359375 160.894531 189.253906 160.894531 C 181.707031 160.894531 169.800781 167.660156 167.089844 180.363281 C 170.605469 173.0625 178.148438 165.132812 189.253906 165.132812 C 204.003906 165.132812 215.121094 175.671875 215.121094 189.648438 C 215.121094 203.933594 203.519531 215.554688 189.253906 215.554688 L 189.253906 219.792969 C 205.851562 219.792969 219.351562 206.269531 219.351562 189.648438 C 219.351562 181.652344 216.203125 174.3125 210.484375 168.976562 Z M 210.484375 168.976562 " fill-opacity="1" fill-rule="nonzero"/><g clip-path="url(#5e965483ef)"><path fill="#1a1a1a" d="M 184.875 142.167969 C 197.261719 126.847656 201.621094 113.949219 197.824219 103.8125 C 195.816406 98.453125 191.449219 95.316406 186.957031 96.003906 C 183.230469 96.578125 179.097656 99.976562 178.671875 107.804688 C 178.421875 112.40625 179.042969 123.457031 180.519531 140.808594 C 179.253906 142.339844 177.964844 143.875 176.710938 145.363281 C 165.425781 158.804688 154.765625 171.496094 154.765625 188.265625 C 154.765625 200.003906 163.449219 218.363281 186.519531 219.710938 C 185.902344 234.003906 183.007812 238.433594 181.808594 239.660156 C 179.917969 241.550781 176.847656 241.550781 174.957031 239.660156 C 174.042969 238.742188 173.539062 237.527344 173.539062 236.230469 C 173.539062 232.0625 177.695312 227.089844 184.796875 229.804688 C 183.082031 228.089844 180.804688 227.144531 178.382812 227.144531 C 175.957031 227.144531 173.679688 228.089844 171.964844 229.804688 C 170.253906 231.519531 169.308594 233.804688 169.308594 236.230469 C 169.308594 238.65625 170.253906 240.9375 171.964844 242.65625 C 173.734375 244.425781 176.054688 245.3125 178.375 245.3125 C 180.703125 245.3125 183.035156 244.421875 184.8125 242.640625 C 190.710938 236.625 192.351562 217.726562 189.433594 189.429688 C 187.484375 170.5 185.960938 154.730469 184.875 142.167969 Z M 182.894531 108.03125 C 183.183594 102.742188 185.511719 100.511719 187.597656 100.191406 C 187.792969 100.164062 187.988281 100.148438 188.183594 100.148438 C 190.453125 100.148438 192.679688 102.140625 193.863281 105.300781 C 196.820312 113.195312 193.621094 123.488281 184.351562 135.949219 C 183.164062 121.425781 182.675781 112.085938 182.894531 108.03125 Z M 186.632812 215.472656 C 166.554688 214.203125 158.996094 198.386719 158.996094 188.265625 C 158.996094 173.039062 169.171875 160.921875 179.949219 148.09375 C 180.308594 147.664062 180.675781 147.230469 181.039062 146.792969 C 182.09375 158.648438 183.492188 173.015625 185.226562 189.863281 C 186.320312 200.464844 186.699219 208.847656 186.632812 215.472656 Z M 186.632812 215.472656 " fill-opacity="1" fill-rule="nonzero"/></g><path fill="#1a1a1a" d="M 169.207031 139.191406 C 158.996094 153.058594 150.785156 166.230469 148.039062 179.210938 C 145.269531 192.292969 149.171875 206.867188 155.503906 215.300781 C 143.992188 205.695312 141.5 188.5625 144.121094 177.355469 C 147.304688 163.757812 157.175781 149.046875 169.207031 139.191406 Z M 169.207031 139.191406 " fill-opacity="1" fill-rule="nonzero"/><path fill="#1a1a1a" d="M 158.335938 134.550781 C 147.328125 150.191406 138.300781 165.003906 135.617188 179.625 C 132.695312 195.527344 139.554688 212.355469 146.527344 221.761719 C 133.105469 211.679688 128.570312 190.171875 131.332031 177.578125 C 134.683594 162.292969 145.3125 145.710938 158.335938 134.550781 Z M 158.335938 134.550781 " fill-opacity="1" fill-rule="nonzero"/><g transform="matrix(1, 0, 0, 1, 103, 251)"><g clip-path="url(#23ee19028c)"><g clip-path="url(#178ba73066)"><g fill="#000000" fill-opacity="1"><g transform="translate(1.242629, 17.825925)"><g><path d="M 7.625 0.375 C 6.414062 0.375 5.378906 0.222656 4.515625 -0.078125 C 3.660156 -0.390625 2.960938 -0.804688 2.421875 -1.328125 C 1.878906 -1.847656 1.476562 -2.425781 1.21875 -3.0625 C 0.957031 -3.707031 0.828125 -4.359375 0.828125 -5.015625 L 3.890625 -5.015625 C 3.890625 -4.492188 4.035156 -4.019531 4.328125 -3.59375 C 4.617188 -3.164062 5.039062 -2.828125 5.59375 -2.578125 C 6.15625 -2.328125 6.828125 -2.203125 7.609375 -2.203125 C 10.085938 -2.203125 11.328125 -3.03125 11.328125 -4.6875 C 11.328125 -5.207031 11.164062 -5.628906 10.84375 -5.953125 C 10.53125 -6.273438 10.085938 -6.535156 9.515625 -6.734375 C 8.941406 -6.929688 8.265625 -7.101562 7.484375 -7.25 C 6.929688 -7.363281 6.359375 -7.503906 5.765625 -7.671875 C 5.179688 -7.835938 4.625 -8.039062 4.09375 -8.28125 C 3.5625 -8.53125 3.082031 -8.832031 2.65625 -9.1875 C 2.226562 -9.550781 1.890625 -9.984375 1.640625 -10.484375 C 1.390625 -10.992188 1.265625 -11.597656 1.265625 -12.296875 C 1.265625 -13.203125 1.484375 -14.015625 1.921875 -14.734375 C 2.359375 -15.460938 3.039062 -16.035156 3.96875 -16.453125 C 4.894531 -16.878906 6.078125 -17.09375 7.515625 -17.09375 C 8.898438 -17.09375 10.054688 -16.878906 10.984375 -16.453125 C 11.921875 -16.035156 12.625 -15.453125 13.09375 -14.703125 C 13.5625 -13.953125 13.796875 -13.078125 13.796875 -12.078125 L 10.734375 -12.078125 C 10.734375 -12.515625 10.617188 -12.90625 10.390625 -13.25 C 10.160156 -13.601562 9.804688 -13.882812 9.328125 -14.09375 C 8.859375 -14.300781 8.238281 -14.40625 7.46875 -14.40625 C 6.84375 -14.40625 6.320312 -14.347656 5.90625 -14.234375 C 5.5 -14.117188 5.179688 -13.957031 4.953125 -13.75 C 4.722656 -13.539062 4.5625 -13.3125 4.46875 -13.0625 C 4.375 -12.8125 4.328125 -12.550781 4.328125 -12.28125 C 4.328125 -11.59375 4.671875 -11.0625 5.359375 -10.6875 C 6.054688 -10.320312 7.101562 -10.023438 8.5 -9.796875 C 9.269531 -9.660156 10.007812 -9.46875 10.71875 -9.21875 C 11.425781 -8.976562 12.054688 -8.664062 12.609375 -8.28125 C 13.171875 -7.894531 13.613281 -7.40625 13.9375 -6.8125 C 14.257812 -6.21875 14.421875 -5.503906 14.421875 -4.671875 C 14.421875 -3.597656 14.140625 -2.679688 13.578125 -1.921875 C 13.015625 -1.171875 12.222656 -0.597656 11.203125 -0.203125 C 10.191406 0.179688 9 0.375 7.625 0.375 Z M 7.625 0.375 "/></g></g></g></g><g clip-path="url(#f041e235b3)"><g fill="#000000" fill-opacity="1"><g transform="translate(16.439349, 17.825925)"><g><path d="M 9.8125 0.359375 C 8.820312 0.359375 7.875 0.210938 6.96875 -0.078125 C 6.070312 -0.367188 5.25 -0.78125 4.5 -1.3125 C 3.75 -1.84375 3.097656 -2.472656 2.546875 -3.203125 C 1.992188 -3.929688 1.566406 -4.734375 1.265625 -5.609375 C 0.960938 -6.484375 0.8125 -7.40625 0.8125 -8.375 C 0.8125 -9.34375 0.960938 -10.265625 1.265625 -11.140625 C 1.566406 -12.015625 1.992188 -12.8125 2.546875 -13.53125 C 3.097656 -14.257812 3.75 -14.890625 4.5 -15.421875 C 5.25 -15.953125 6.070312 -16.363281 6.96875 -16.65625 C 7.875 -16.945312 8.820312 -17.09375 9.8125 -17.09375 C 10.800781 -17.09375 11.742188 -16.945312 12.640625 -16.65625 C 13.546875 -16.363281 14.375 -15.953125 15.125 -15.421875 C 15.875 -14.890625 16.523438 -14.257812 17.078125 -13.53125 C 17.628906 -12.8125 18.054688 -12.015625 18.359375 -11.140625 C 18.660156 -10.265625 18.8125 -9.34375 18.8125 -8.375 C 18.8125 -7.40625 18.660156 -6.484375 18.359375 -5.609375 C 18.054688 -4.734375 17.628906 -3.929688 17.078125 -3.203125 C 16.523438 -2.472656 15.875 -1.84375 15.125 -1.3125 C 14.375 -0.78125 13.550781 -0.367188 12.65625 -0.078125 C 11.757812 0.210938 10.8125 0.359375 9.8125 0.359375 Z M 9.8125 -2.453125 C 10.632812 -2.453125 11.40625 -2.597656 12.125 -2.890625 C 12.84375 -3.191406 13.476562 -3.609375 14.03125 -4.140625 C 14.582031 -4.671875 15.007812 -5.296875 15.3125 -6.015625 C 15.625 -6.734375 15.78125 -7.515625 15.78125 -8.359375 C 15.78125 -9.210938 15.625 -10 15.3125 -10.71875 C 15.007812 -11.445312 14.582031 -12.078125 14.03125 -12.609375 C 13.476562 -13.140625 12.84375 -13.550781 12.125 -13.84375 C 11.40625 -14.132812 10.632812 -14.28125 9.8125 -14.28125 C 8.988281 -14.28125 8.21875 -14.132812 7.5 -13.84375 C 6.78125 -13.550781 6.144531 -13.132812 5.59375 -12.59375 C 5.050781 -12.0625 4.625 -11.4375 4.3125 -10.71875 C 4.007812 -10 3.859375 -9.210938 3.859375 -8.359375 C 3.859375 -7.515625 4.007812 -6.734375 4.3125 -6.015625 C 4.625 -5.296875 5.050781 -4.671875 5.59375 -4.140625 C 6.144531 -3.609375 6.78125 -3.191406 7.5 -2.890625 C 8.21875 -2.597656 8.988281 -2.453125 9.8125 -2.453125 Z M 9.8125 -2.453125 "/></g></g></g></g><g fill="#000000" fill-opacity="1"><g transform="translate(36.067425, 17.825925)"><g><path d="M 5.046875 0 L 1.984375 0 L 1.984375 -16.6875 L 4.609375 -16.6875 L 13.71875 -5.015625 L 13.71875 -16.6875 L 16.75 -16.6875 L 16.75 0 L 14.140625 0 L 5.046875 -11.671875 Z M 5.046875 0 "/></g></g></g><g fill="#000000" fill-opacity="1"><g transform="translate(54.811687, 17.825925)"><g><path d="M 5.046875 0 L 1.984375 0 L 1.984375 -16.6875 L 5.046875 -16.6875 Z M 5.046875 0 "/></g></g></g><g clip-path="url(#9b19ebf6d7)"><g fill="#000000" fill-opacity="1"><g transform="translate(61.833106, 17.825925)"><g><path d="M 9.625 0.359375 C 8.644531 0.359375 7.710938 0.210938 6.828125 -0.078125 C 5.941406 -0.367188 5.128906 -0.78125 4.390625 -1.3125 C 3.660156 -1.84375 3.023438 -2.472656 2.484375 -3.203125 C 1.953125 -3.929688 1.539062 -4.734375 1.25 -5.609375 C 0.957031 -6.484375 0.8125 -7.40625 0.8125 -8.375 C 0.8125 -9.34375 0.957031 -10.265625 1.25 -11.140625 C 1.539062 -12.015625 1.953125 -12.8125 2.484375 -13.53125 C 3.023438 -14.257812 3.660156 -14.890625 4.390625 -15.421875 C 5.128906 -15.953125 5.941406 -16.363281 6.828125 -16.65625 C 7.710938 -16.945312 8.644531 -17.09375 9.625 -17.09375 C 10.507812 -17.09375 11.382812 -16.957031 12.25 -16.6875 C 13.113281 -16.425781 13.921875 -16.023438 14.671875 -15.484375 C 15.429688 -14.953125 16.070312 -14.273438 16.59375 -13.453125 C 17.113281 -12.640625 17.472656 -11.675781 17.671875 -10.5625 L 14.5625 -10.5625 C 14.34375 -11.425781 13.988281 -12.128906 13.5 -12.671875 C 13.007812 -13.222656 12.425781 -13.628906 11.75 -13.890625 C 11.070312 -14.148438 10.332031 -14.28125 9.53125 -14.28125 C 8.75 -14.28125 8.015625 -14.140625 7.328125 -13.859375 C 6.640625 -13.578125 6.035156 -13.175781 5.515625 -12.65625 C 4.992188 -12.132812 4.585938 -11.507812 4.296875 -10.78125 C 4.003906 -10.0625 3.859375 -9.253906 3.859375 -8.359375 C 3.859375 -7.453125 4.003906 -6.632812 4.296875 -5.90625 C 4.585938 -5.1875 4.992188 -4.566406 5.515625 -4.046875 C 6.035156 -3.535156 6.640625 -3.140625 7.328125 -2.859375 C 8.015625 -2.585938 8.75 -2.453125 9.53125 -2.453125 C 10.332031 -2.453125 11.066406 -2.582031 11.734375 -2.84375 C 12.410156 -3.101562 12.992188 -3.507812 13.484375 -4.0625 C 13.984375 -4.613281 14.335938 -5.3125 14.546875 -6.15625 L 17.671875 -6.15625 C 17.472656 -5.050781 17.113281 -4.085938 16.59375 -3.265625 C 16.070312 -2.441406 15.4375 -1.757812 14.6875 -1.21875 C 13.945312 -0.6875 13.140625 -0.289062 12.265625 -0.03125 C 11.398438 0.226562 10.519531 0.359375 9.625 0.359375 Z M 9.625 0.359375 "/></g></g></g></g><g fill="#000000" fill-opacity="1"><g transform="translate(80.331861, 17.825925)"><g><path d="M 9.8125 -5.453125 L 1.421875 -5.453125 L 1.421875 -7.890625 L 9.8125 -7.890625 Z M 9.8125 -5.453125 "/></g></g></g><g fill="#000000" fill-opacity="1"><g transform="translate(91.563687, 17.825925)"><g><path d="M 9.96875 0 L 1.984375 0 L 1.984375 -16.6875 L 9.265625 -16.6875 C 10.285156 -16.6875 11.175781 -16.503906 11.9375 -16.140625 C 12.695312 -15.785156 13.285156 -15.269531 13.703125 -14.59375 C 14.128906 -13.914062 14.34375 -13.109375 14.34375 -12.171875 C 14.34375 -11.679688 14.242188 -11.210938 14.046875 -10.765625 C 13.859375 -10.328125 13.601562 -9.9375 13.28125 -9.59375 C 12.96875 -9.25 12.617188 -9 12.234375 -8.84375 C 12.796875 -8.65625 13.304688 -8.367188 13.765625 -7.984375 C 14.234375 -7.597656 14.609375 -7.132812 14.890625 -6.59375 C 15.171875 -6.0625 15.3125 -5.476562 15.3125 -4.84375 C 15.3125 -4.019531 15.160156 -3.300781 14.859375 -2.6875 C 14.554688 -2.082031 14.148438 -1.582031 13.640625 -1.1875 C 13.128906 -0.789062 12.554688 -0.492188 11.921875 -0.296875 C 11.285156 -0.0976562 10.632812 0 9.96875 0 Z M 5.0625 -14.0625 L 5.0625 -9.71875 L 9.125 -9.71875 C 9.53125 -9.71875 9.894531 -9.8125 10.21875 -10 C 10.539062 -10.195312 10.796875 -10.460938 10.984375 -10.796875 C 11.171875 -11.128906 11.265625 -11.5 11.265625 -11.90625 C 11.265625 -12.3125 11.171875 -12.675781 10.984375 -13 C 10.796875 -13.332031 10.539062 -13.59375 10.21875 -13.78125 C 9.90625 -13.96875 9.546875 -14.0625 9.140625 -14.0625 Z M 5.0625 -7.421875 L 5.0625 -2.640625 L 9.703125 -2.640625 C 10.171875 -2.640625 10.59375 -2.742188 10.96875 -2.953125 C 11.34375 -3.160156 11.632812 -3.445312 11.84375 -3.8125 C 12.0625 -4.1875 12.171875 -4.609375 12.171875 -5.078125 C 12.171875 -5.515625 12.066406 -5.90625 11.859375 -6.25 C 11.648438 -6.601562 11.359375 -6.882812 10.984375 -7.09375 C 10.609375 -7.3125 10.1875 -7.421875 9.71875 -7.421875 Z M 5.0625 -7.421875 "/></g></g></g><g clip-path="url(#48a2731c83)"><g fill="#000000" fill-opacity="1"><g transform="translate(107.656506, 17.825925)"><g><path d="M 9.8125 0.359375 C 8.820312 0.359375 7.875 0.210938 6.96875 -0.078125 C 6.070312 -0.367188 5.25 -0.78125 4.5 -1.3125 C 3.75 -1.84375 3.097656 -2.472656 2.546875 -3.203125 C 1.992188 -3.929688 1.566406 -4.734375 1.265625 -5.609375 C 0.960938 -6.484375 0.8125 -7.40625 0.8125 -8.375 C 0.8125 -9.34375 0.960938 -10.265625 1.265625 -11.140625 C 1.566406 -12.015625 1.992188 -12.8125 2.546875 -13.53125 C 3.097656 -14.257812 3.75 -14.890625 4.5 -15.421875 C 5.25 -15.953125 6.070312 -16.363281 6.96875 -16.65625 C 7.875 -16.945312 8.820312 -17.09375 9.8125 -17.09375 C 10.800781 -17.09375 11.742188 -16.945312 12.640625 -16.65625 C 13.546875 -16.363281 14.375 -15.953125 15.125 -15.421875 C 15.875 -14.890625 16.523438 -14.257812 17.078125 -13.53125 C 17.628906 -12.8125 18.054688 -12.015625 18.359375 -11.140625 C 18.660156 -10.265625 18.8125 -9.34375 18.8125 -8.375 C 18.8125 -7.40625 18.660156 -6.484375 18.359375 -5.609375 C 18.054688 -4.734375 17.628906 -3.929688 17.078125 -3.203125 C 16.523438 -2.472656 15.875 -1.84375 15.125 -1.3125 C 14.375 -0.78125 13.550781 -0.367188 12.65625 -0.078125 C 11.757812 0.210938 10.8125 0.359375 9.8125 0.359375 Z M 9.8125 -2.453125 C 10.632812 -2.453125 11.40625 -2.597656 12.125 -2.890625 C 12.84375 -3.191406 13.476562 -3.609375 14.03125 -4.140625 C 14.582031 -4.671875 15.007812 -5.296875 15.3125 -6.015625 C 15.625 -6.734375 15.78125 -7.515625 15.78125 -8.359375 C 15.78125 -9.210938 15.625 -10 15.3125 -10.71875 C 15.007812 -11.445312 14.582031 -12.078125 14.03125 -12.609375 C 13.476562 -13.140625 12.84375 -13.550781 12.125 -13.84375 C 11.40625 -14.132812 10.632812 -14.28125 9.8125 -14.28125 C 8.988281 -14.28125 8.21875 -14.132812 7.5 -13.84375 C 6.78125 -13.550781 6.144531 -13.132812 5.59375 -12.59375 C 5.050781 -12.0625 4.625 -11.4375 4.3125 -10.71875 C 4.007812 -10 3.859375 -9.210938 3.859375 -8.359375 C 3.859375 -7.515625 4.007812 -6.734375 4.3125 -6.015625 C 4.625 -5.296875 5.050781 -4.671875 5.59375 -4.140625 C 6.144531 -3.609375 6.78125 -3.191406 7.5 -2.890625 C 8.21875 -2.597656 8.988281 -2.453125 9.8125 -2.453125 Z M 9.8125 -2.453125 "/></g></g></g></g><g clip-path="url(#e3c9911bdf)"><g fill="#000000" fill-opacity="1"><g transform="translate(127.284575, 17.825925)"><g><path d="M 9.8125 0.359375 C 8.820312 0.359375 7.875 0.210938 6.96875 -0.078125 C 6.070312 -0.367188 5.25 -0.78125 4.5 -1.3125 C 3.75 -1.84375 3.097656 -2.472656 2.546875 -3.203125 C 1.992188 -3.929688 1.566406 -4.734375 1.265625 -5.609375 C 0.960938 -6.484375 0.8125 -7.40625 0.8125 -8.375 C 0.8125 -9.34375 0.960938 -10.265625 1.265625 -11.140625 C 1.566406 -12.015625 1.992188 -12.8125 2.546875 -13.53125 C 3.097656 -14.257812 3.75 -14.890625 4.5 -15.421875 C 5.25 -15.953125 6.070312 -16.363281 6.96875 -16.65625 C 7.875 -16.945312 8.820312 -17.09375 9.8125 -17.09375 C 10.800781 -17.09375 11.742188 -16.945312 12.640625 -16.65625 C 13.546875 -16.363281 14.375 -15.953125 15.125 -15.421875 C 15.875 -14.890625 16.523438 -14.257812 17.078125 -13.53125 C 17.628906 -12.8125 18.054688 -12.015625 18.359375 -11.140625 C 18.660156 -10.265625 18.8125 -9.34375 18.8125 -8.375 C 18.8125 -7.40625 18.660156 -6.484375 18.359375 -5.609375 C 18.054688 -4.734375 17.628906 -3.929688 17.078125 -3.203125 C 16.523438 -2.472656 15.875 -1.84375 15.125 -1.3125 C 14.375 -0.78125 13.550781 -0.367188 12.65625 -0.078125 C 11.757812 0.210938 10.8125 0.359375 9.8125 0.359375 Z M 9.8125 -2.453125 C 10.632812 -2.453125 11.40625 -2.597656 12.125 -2.890625 C 12.84375 -3.191406 13.476562 -3.609375 14.03125 -4.140625 C 14.582031 -4.671875 15.007812 -5.296875 15.3125 -6.015625 C 15.625 -6.734375 15.78125 -7.515625 15.78125 -8.359375 C 15.78125 -9.210938 15.625 -10 15.3125 -10.71875 C 15.007812 -11.445312 14.582031 -12.078125 14.03125 -12.609375 C 13.476562 -13.140625 12.84375 -13.550781 12.125 -13.84375 C 11.40625 -14.132812 10.632812 -14.28125 9.8125 -14.28125 C 8.988281 -14.28125 8.21875 -14.132812 7.5 -13.84375 C 6.78125 -13.550781 6.144531 -13.132812 5.59375 -12.59375 C 5.050781 -12.0625 4.625 -11.4375 4.3125 -10.71875 C 4.007812 -10 3.859375 -9.210938 3.859375 -8.359375 C 3.859375 -7.515625 4.007812 -6.734375 4.3125 -6.015625 C 4.625 -5.296875 5.050781 -4.671875 5.59375 -4.140625 C 6.144531 -3.609375 6.78125 -3.191406 7.5 -2.890625 C 8.21875 -2.597656 8.988281 -2.453125 9.8125 -2.453125 Z M 9.8125 -2.453125 "/></g></g></g></g><g fill="#000000" fill-opacity="1"><g transform="translate(146.912656, 17.825925)"><g><path d="M 5.046875 0 L 1.984375 0 L 1.984375 -16.6875 L 4.65625 -16.6875 L 10.40625 -8.90625 L 16.203125 -16.6875 L 18.875 -16.6875 L 18.875 0 L 15.8125 0 L 15.8125 -11.796875 L 10.8125 -4.96875 L 10 -4.96875 L 5.046875 -11.828125 Z M 5.046875 0 "/></g></g></g></g></g><g transform="matrix(1, 0, 0, 1, 62, 277)"><g clip-path="url(#d1aaa70cc8)"><g fill="#000000" fill-opacity="1"><g transform="translate(1.309068, 8.338272)"><g><path d="M 3.171875 -2.046875 L 3.171875 0 L 2.328125 0 L 2.328125 -2.0625 L -0.03125 -5.9375 L 0.875 -5.9375 L 2.78125 -2.8125 L 4.6875 -5.9375 L 5.515625 -5.9375 Z M 3.171875 -2.046875 "/></g></g></g><g fill="#000000" fill-opacity="1"><g transform="translate(10.956677, 8.338272)"><g><path d="M 3.578125 0.0625 C 2.972656 0.0625 2.429688 -0.0664062 1.953125 -0.328125 C 1.472656 -0.585938 1.09375 -0.945312 0.8125 -1.40625 C 0.539062 -1.875 0.40625 -2.394531 0.40625 -2.96875 C 0.40625 -3.539062 0.539062 -4.054688 0.8125 -4.515625 C 1.09375 -4.984375 1.472656 -5.347656 1.953125 -5.609375 C 2.429688 -5.867188 2.972656 -6 3.578125 -6 C 4.171875 -6 4.707031 -5.867188 5.1875 -5.609375 C 5.664062 -5.347656 6.039062 -4.984375 6.3125 -4.515625 C 6.582031 -4.054688 6.71875 -3.539062 6.71875 -2.96875 C 6.71875 -2.394531 6.582031 -1.875 6.3125 -1.40625 C 6.039062 -0.945312 5.664062 -0.585938 5.1875 -0.328125 C 4.707031 -0.0664062 4.171875 0.0625 3.578125 0.0625 Z M 3.578125 -0.6875 C 4.003906 -0.6875 4.390625 -0.785156 4.734375 -0.984375 C 5.085938 -1.179688 5.363281 -1.453125 5.5625 -1.796875 C 5.769531 -2.148438 5.875 -2.539062 5.875 -2.96875 C 5.875 -3.394531 5.769531 -3.78125 5.5625 -4.125 C 5.363281 -4.476562 5.085938 -4.753906 4.734375 -4.953125 C 4.390625 -5.148438 4.003906 -5.25 3.578125 -5.25 C 3.140625 -5.25 2.742188 -5.148438 2.390625 -4.953125 C 2.035156 -4.753906 1.753906 -4.476562 1.546875 -4.125 C 1.347656 -3.78125 1.25 -3.394531 1.25 -2.96875 C 1.25 -2.539062 1.347656 -2.148438 1.546875 -1.796875 C 1.753906 -1.453125 2.035156 -1.179688 2.390625 -0.984375 C 2.742188 -0.785156 3.140625 -0.6875 3.578125 -0.6875 Z M 3.578125 -0.6875 "/></g></g></g><g fill="#000000" fill-opacity="1"><g transform="translate(22.241766, 8.338272)"><g><path d="M 3.34375 0.0625 C 2.550781 0.0625 1.9375 -0.160156 1.5 -0.609375 C 1.0625 -1.066406 0.84375 -1.71875 0.84375 -2.5625 L 0.84375 -5.9375 L 1.6875 -5.9375 L 1.6875 -2.59375 C 1.6875 -1.320312 2.242188 -0.6875 3.359375 -0.6875 C 3.898438 -0.6875 4.316406 -0.84375 4.609375 -1.15625 C 4.898438 -1.46875 5.046875 -1.945312 5.046875 -2.59375 L 5.046875 -5.9375 L 5.859375 -5.9375 L 5.859375 -2.5625 C 5.859375 -1.707031 5.640625 -1.054688 5.203125 -0.609375 C 4.765625 -0.160156 4.144531 0.0625 3.34375 0.0625 Z M 3.34375 0.0625 "/></g></g></g><g fill="#000000" fill-opacity="1"><g transform="translate(33.111124, 8.338272)"><g><path d="M 4.859375 0 L 3.578125 -1.828125 C 3.421875 -1.816406 3.296875 -1.8125 3.203125 -1.8125 L 1.734375 -1.8125 L 1.734375 0 L 0.890625 0 L 0.890625 -5.9375 L 3.203125 -5.9375 C 3.972656 -5.9375 4.578125 -5.753906 5.015625 -5.390625 C 5.460938 -5.023438 5.6875 -4.519531 5.6875 -3.875 C 5.6875 -3.414062 5.570312 -3.023438 5.34375 -2.703125 C 5.113281 -2.378906 4.789062 -2.144531 4.375 -2 L 5.78125 0 Z M 3.1875 -2.53125 C 3.71875 -2.53125 4.125 -2.644531 4.40625 -2.875 C 4.695312 -3.101562 4.84375 -3.4375 4.84375 -3.875 C 4.84375 -4.300781 4.695312 -4.628906 4.40625 -4.859375 C 4.125 -5.085938 3.71875 -5.203125 3.1875 -5.203125 L 1.734375 -5.203125 L 1.734375 -2.53125 Z M 3.1875 -2.53125 "/></g></g></g><g fill="#000000" fill-opacity="1"><g transform="translate(43.437482, 8.338272)"><g/></g></g><g fill="#000000" fill-opacity="1"><g transform="translate(49.878002, 8.338272)"><g><path d="M 3.203125 -5.9375 C 3.972656 -5.9375 4.578125 -5.753906 5.015625 -5.390625 C 5.460938 -5.023438 5.6875 -4.519531 5.6875 -3.875 C 5.6875 -3.226562 5.460938 -2.71875 5.015625 -2.34375 C 4.578125 -1.976562 3.972656 -1.796875 3.203125 -1.796875 L 1.734375 -1.796875 L 1.734375 0 L 0.890625 0 L 0.890625 -5.9375 Z M 3.1875 -2.53125 C 3.71875 -2.53125 4.125 -2.644531 4.40625 -2.875 C 4.695312 -3.101562 4.84375 -3.4375 4.84375 -3.875 C 4.84375 -4.300781 4.695312 -4.628906 4.40625 -4.859375 C 4.125 -5.085938 3.71875 -5.203125 3.1875 -5.203125 L 1.734375 -5.203125 L 1.734375 -2.53125 Z M 3.1875 -2.53125 "/></g></g></g><g fill="#000000" fill-opacity="1"><g transform="translate(60.161937, 8.338272)"><g><path d="M 5.203125 -0.734375 L 5.203125 0 L 0.890625 0 L 0.890625 -5.9375 L 5.078125 -5.9375 L 5.078125 -5.203125 L 1.734375 -5.203125 L 1.734375 -3.375 L 4.71875 -3.375 L 4.71875 -2.65625 L 1.734375 -2.65625 L 1.734375 -0.734375 Z M 5.203125 -0.734375 "/></g></g></g><g fill="#000000" fill-opacity="1"><g transform="translate(70.004685, 8.338272)"><g><path d="M 4.859375 0 L 3.578125 -1.828125 C 3.421875 -1.816406 3.296875 -1.8125 3.203125 -1.8125 L 1.734375 -1.8125 L 1.734375 0 L 0.890625 0 L 0.890625 -5.9375 L 3.203125 -5.9375 C 3.972656 -5.9375 4.578125 -5.753906 5.015625 -5.390625 C 5.460938 -5.023438 5.6875 -4.519531 5.6875 -3.875 C 5.6875 -3.414062 5.570312 -3.023438 5.34375 -2.703125 C 5.113281 -2.378906 4.789062 -2.144531 4.375 -2 L 5.78125 0 Z M 3.1875 -2.53125 C 3.71875 -2.53125 4.125 -2.644531 4.40625 -2.875 C 4.695312 -3.101562 4.84375 -3.4375 4.84375 -3.875 C 4.84375 -4.300781 4.695312 -4.628906 4.40625 -4.859375 C 4.125 -5.085938 3.71875 -5.203125 3.1875 -5.203125 L 1.734375 -5.203125 L 1.734375 -2.53125 Z M 3.1875 -2.53125 "/></g></g></g><g fill="#000000" fill-opacity="1"><g transform="translate(80.331043, 8.338272)"><g><path d="M 2.625 0.0625 C 2.175781 0.0625 1.742188 -0.00390625 1.328125 -0.140625 C 0.910156 -0.273438 0.582031 -0.453125 0.34375 -0.671875 L 0.65625 -1.34375 C 0.882812 -1.132812 1.175781 -0.96875 1.53125 -0.84375 C 1.882812 -0.71875 2.25 -0.65625 2.625 -0.65625 C 3.113281 -0.65625 3.476562 -0.738281 3.71875 -0.90625 C 3.96875 -1.070312 4.09375 -1.289062 4.09375 -1.5625 C 4.09375 -1.769531 4.023438 -1.9375 3.890625 -2.0625 C 3.753906 -2.1875 3.585938 -2.28125 3.390625 -2.34375 C 3.203125 -2.414062 2.929688 -2.5 2.578125 -2.59375 C 2.128906 -2.695312 1.765625 -2.800781 1.484375 -2.90625 C 1.210938 -3.019531 0.976562 -3.1875 0.78125 -3.40625 C 0.582031 -3.625 0.484375 -3.925781 0.484375 -4.3125 C 0.484375 -4.625 0.566406 -4.90625 0.734375 -5.15625 C 0.910156 -5.414062 1.164062 -5.617188 1.5 -5.765625 C 1.84375 -5.921875 2.265625 -6 2.765625 -6 C 3.117188 -6 3.460938 -5.953125 3.796875 -5.859375 C 4.140625 -5.773438 4.429688 -5.648438 4.671875 -5.484375 L 4.390625 -4.796875 C 4.140625 -4.960938 3.875 -5.082031 3.59375 -5.15625 C 3.3125 -5.238281 3.035156 -5.28125 2.765625 -5.28125 C 2.285156 -5.28125 1.925781 -5.191406 1.6875 -5.015625 C 1.445312 -4.847656 1.328125 -4.625 1.328125 -4.34375 C 1.328125 -4.132812 1.394531 -3.96875 1.53125 -3.84375 C 1.664062 -3.71875 1.832031 -3.617188 2.03125 -3.546875 C 2.226562 -3.472656 2.5 -3.398438 2.84375 -3.328125 C 3.289062 -3.222656 3.648438 -3.113281 3.921875 -3 C 4.191406 -2.894531 4.425781 -2.734375 4.625 -2.515625 C 4.820312 -2.296875 4.921875 -2 4.921875 -1.625 C 4.921875 -1.3125 4.832031 -1.023438 4.65625 -0.765625 C 4.488281 -0.503906 4.234375 -0.300781 3.890625 -0.15625 C 3.546875 -0.0078125 3.125 0.0625 2.625 0.0625 Z M 2.625 0.0625 "/></g></g></g><g fill="#000000" fill-opacity="1"><g transform="translate(89.758056, 8.338272)"><g><path d="M 3.578125 0.0625 C 2.972656 0.0625 2.429688 -0.0664062 1.953125 -0.328125 C 1.472656 -0.585938 1.09375 -0.945312 0.8125 -1.40625 C 0.539062 -1.875 0.40625 -2.394531 0.40625 -2.96875 C 0.40625 -3.539062 0.539062 -4.054688 0.8125 -4.515625 C 1.09375 -4.984375 1.472656 -5.347656 1.953125 -5.609375 C 2.429688 -5.867188 2.972656 -6 3.578125 -6 C 4.171875 -6 4.707031 -5.867188 5.1875 -5.609375 C 5.664062 -5.347656 6.039062 -4.984375 6.3125 -4.515625 C 6.582031 -4.054688 6.71875 -3.539062 6.71875 -2.96875 C 6.71875 -2.394531 6.582031 -1.875 6.3125 -1.40625 C 6.039062 -0.945312 5.664062 -0.585938 5.1875 -0.328125 C 4.707031 -0.0664062 4.171875 0.0625 3.578125 0.0625 Z M 3.578125 -0.6875 C 4.003906 -0.6875 4.390625 -0.785156 4.734375 -0.984375 C 5.085938 -1.179688 5.363281 -1.453125 5.5625 -1.796875 C 5.769531 -2.148438 5.875 -2.539062 5.875 -2.96875 C 5.875 -3.394531 5.769531 -3.78125 5.5625 -4.125 C 5.363281 -4.476562 5.085938 -4.753906 4.734375 -4.953125 C 4.390625 -5.148438 4.003906 -5.25 3.578125 -5.25 C 3.140625 -5.25 2.742188 -5.148438 2.390625 -4.953125 C 2.035156 -4.753906 1.753906 -4.476562 1.546875 -4.125 C 1.347656 -3.78125 1.25 -3.394531 1.25 -2.96875 C 1.25 -2.539062 1.347656 -2.148438 1.546875 -1.796875 C 1.753906 -1.453125 2.035156 -1.179688 2.390625 -0.984375 C 2.742188 -0.785156 3.140625 -0.6875 3.578125 -0.6875 Z M 3.578125 -0.6875 "/></g></g></g><g fill="#000000" fill-opacity="1"><g transform="translate(101.043154, 8.338272)"><g><path d="M 6 -5.9375 L 6 0 L 5.296875 0 L 1.734375 -4.421875 L 1.734375 0 L 0.890625 0 L 0.890625 -5.9375 L 1.59375 -5.9375 L 5.15625 -1.515625 L 5.15625 -5.9375 Z M 6 -5.9375 "/></g></g></g><g fill="#000000" fill-opacity="1"><g transform="translate(112.090673, 8.338272)"><g><path d="M 4.671875 -1.484375 L 1.515625 -1.484375 L 0.859375 0 L -0.015625 0 L 2.6875 -5.9375 L 3.515625 -5.9375 L 6.21875 0 L 5.328125 0 Z M 4.375 -2.15625 L 3.09375 -5.078125 L 1.8125 -2.15625 Z M 4.375 -2.15625 "/></g></g></g><g fill="#000000" fill-opacity="1"><g transform="translate(122.459454, 8.338272)"><g><path d="M 0.890625 -5.9375 L 1.734375 -5.9375 L 1.734375 -0.734375 L 4.953125 -0.734375 L 4.953125 0 L 0.890625 0 Z M 0.890625 -5.9375 "/></g></g></g><g fill="#000000" fill-opacity="1"><g transform="translate(131.657391, 8.338272)"><g/></g></g><g fill="#000000" fill-opacity="1"><g transform="translate(138.097908, 8.338272)"><g><path d="M 6.390625 0 L 6.390625 -4.328125 L 4.234375 -0.71875 L 3.859375 -0.71875 L 1.703125 -4.296875 L 1.703125 0 L 0.890625 0 L 0.890625 -5.9375 L 1.59375 -5.9375 L 4.0625 -1.765625 L 6.5 -5.9375 L 7.203125 -5.9375 L 7.21875 0 Z M 6.390625 0 "/></g></g></g><g fill="#000000" fill-opacity="1"><g transform="translate(150.358706, 8.338272)"><g><path d="M 3.34375 0.0625 C 2.550781 0.0625 1.9375 -0.160156 1.5 -0.609375 C 1.0625 -1.066406 0.84375 -1.71875 0.84375 -2.5625 L 0.84375 -5.9375 L 1.6875 -5.9375 L 1.6875 -2.59375 C 1.6875 -1.320312 2.242188 -0.6875 3.359375 -0.6875 C 3.898438 -0.6875 4.316406 -0.84375 4.609375 -1.15625 C 4.898438 -1.46875 5.046875 -1.945312 5.046875 -2.59375 L 5.046875 -5.9375 L 5.859375 -5.9375 L 5.859375 -2.5625 C 5.859375 -1.707031 5.640625 -1.054688 5.203125 -0.609375 C 4.765625 -0.160156 4.144531 0.0625 3.34375 0.0625 Z M 3.34375 0.0625 "/></g></g></g><g fill="#000000" fill-opacity="1"><g transform="translate(161.228064, 8.338272)"><g><path d="M 2.625 0.0625 C 2.175781 0.0625 1.742188 -0.00390625 1.328125 -0.140625 C 0.910156 -0.273438 0.582031 -0.453125 0.34375 -0.671875 L 0.65625 -1.34375 C 0.882812 -1.132812 1.175781 -0.96875 1.53125 -0.84375 C 1.882812 -0.71875 2.25 -0.65625 2.625 -0.65625 C 3.113281 -0.65625 3.476562 -0.738281 3.71875 -0.90625 C 3.96875 -1.070312 4.09375 -1.289062 4.09375 -1.5625 C 4.09375 -1.769531 4.023438 -1.9375 3.890625 -2.0625 C 3.753906 -2.1875 3.585938 -2.28125 3.390625 -2.34375 C 3.203125 -2.414062 2.929688 -2.5 2.578125 -2.59375 C 2.128906 -2.695312 1.765625 -2.800781 1.484375 -2.90625 C 1.210938 -3.019531 0.976562 -3.1875 0.78125 -3.40625 C 0.582031 -3.625 0.484375 -3.925781 0.484375 -4.3125 C 0.484375 -4.625 0.566406 -4.90625 0.734375 -5.15625 C 0.910156 -5.414062 1.164062 -5.617188 1.5 -5.765625 C 1.84375 -5.921875 2.265625 -6 2.765625 -6 C 3.117188 -6 3.460938 -5.953125 3.796875 -5.859375 C 4.140625 -5.773438 4.429688 -5.648438 4.671875 -5.484375 L 4.390625 -4.796875 C 4.140625 -4.960938 3.875 -5.082031 3.59375 -5.15625 C 3.3125 -5.238281 3.035156 -5.28125 2.765625 -5.28125 C 2.285156 -5.28125 1.925781 -5.191406 1.6875 -5.015625 C 1.445312 -4.847656 1.328125 -4.625 1.328125 -4.34375 C 1.328125 -4.132812 1.394531 -3.96875 1.53125 -3.84375 C 1.664062 -3.71875 1.832031 -3.617188 2.03125 -3.546875 C 2.226562 -3.472656 2.5 -3.398438 2.84375 -3.328125 C 3.289062 -3.222656 3.648438 -3.113281 3.921875 -3 C 4.191406 -2.894531 4.425781 -2.734375 4.625 -2.515625 C 4.820312 -2.296875 4.921875 -2 4.921875 -1.625 C 4.921875 -1.3125 4.832031 -1.023438 4.65625 -0.765625 C 4.488281 -0.503906 4.234375 -0.300781 3.890625 -0.15625 C 3.546875 -0.0078125 3.125 0.0625 2.625 0.0625 Z M 2.625 0.0625 "/></g></g></g><g fill="#000000" fill-opacity="1"><g transform="translate(170.655077, 8.338272)"><g><path d="M 0.890625 -5.9375 L 1.734375 -5.9375 L 1.734375 0 L 0.890625 0 Z M 0.890625 -5.9375 "/></g></g></g><g fill="#000000" fill-opacity="1"><g transform="translate(177.443448, 8.338272)"><g><path d="M 3.546875 0.0625 C 2.953125 0.0625 2.414062 -0.0664062 1.9375 -0.328125 C 1.457031 -0.585938 1.082031 -0.945312 0.8125 -1.40625 C 0.539062 -1.875 0.40625 -2.394531 0.40625 -2.96875 C 0.40625 -3.539062 0.539062 -4.054688 0.8125 -4.515625 C 1.082031 -4.984375 1.457031 -5.347656 1.9375 -5.609375 C 2.425781 -5.867188 2.96875 -6 3.5625 -6 C 4.019531 -6 4.441406 -5.921875 4.828125 -5.765625 C 5.210938 -5.617188 5.539062 -5.390625 5.8125 -5.078125 L 5.265625 -4.546875 C 4.816406 -5.015625 4.257812 -5.25 3.59375 -5.25 C 3.144531 -5.25 2.742188 -5.148438 2.390625 -4.953125 C 2.035156 -4.753906 1.753906 -4.476562 1.546875 -4.125 C 1.347656 -3.78125 1.25 -3.394531 1.25 -2.96875 C 1.25 -2.539062 1.347656 -2.148438 1.546875 -1.796875 C 1.753906 -1.453125 2.035156 -1.179688 2.390625 -0.984375 C 2.742188 -0.785156 3.144531 -0.6875 3.59375 -0.6875 C 4.25 -0.6875 4.804688 -0.925781 5.265625 -1.40625 L 5.8125 -0.859375 C 5.539062 -0.554688 5.207031 -0.328125 4.8125 -0.171875 C 4.425781 -0.015625 4.003906 0.0625 3.546875 0.0625 Z M 3.546875 0.0625 "/></g></g></g><g fill="#000000" fill-opacity="1"><g transform="translate(187.735874, 8.338272)"><g/></g></g><g fill="#000000" fill-opacity="1"><g transform="translate(194.176403, 8.338272)"><g><path d="M 3.203125 -5.9375 C 3.972656 -5.9375 4.578125 -5.753906 5.015625 -5.390625 C 5.460938 -5.023438 5.6875 -4.519531 5.6875 -3.875 C 5.6875 -3.226562 5.460938 -2.71875 5.015625 -2.34375 C 4.578125 -1.976562 3.972656 -1.796875 3.203125 -1.796875 L 1.734375 -1.796875 L 1.734375 0 L 0.890625 0 L 0.890625 -5.9375 Z M 3.1875 -2.53125 C 3.71875 -2.53125 4.125 -2.644531 4.40625 -2.875 C 4.695312 -3.101562 4.84375 -3.4375 4.84375 -3.875 C 4.84375 -4.300781 4.695312 -4.628906 4.40625 -4.859375 C 4.125 -5.085938 3.71875 -5.203125 3.1875 -5.203125 L 1.734375 -5.203125 L 1.734375 -2.53125 Z M 3.1875 -2.53125 "/></g></g></g><g fill="#000000" fill-opacity="1"><g transform="translate(204.460338, 8.338272)"><g><path d="M 0.890625 -5.9375 L 1.734375 -5.9375 L 1.734375 -0.734375 L 4.953125 -0.734375 L 4.953125 0 L 0.890625 0 Z M 0.890625 -5.9375 "/></g></g></g><g fill="#000000" fill-opacity="1"><g transform="translate(213.658274, 8.338272)"><g><path d="M 4.671875 -1.484375 L 1.515625 -1.484375 L 0.859375 0 L -0.015625 0 L 2.6875 -5.9375 L 3.515625 -5.9375 L 6.21875 0 L 5.328125 0 Z M 4.375 -2.15625 L 3.09375 -5.078125 L 1.8125 -2.15625 Z M 4.375 -2.15625 "/></g></g></g><g fill="#000000" fill-opacity="1"><g transform="translate(224.027055, 8.338272)"><g><path d="M 3.171875 -2.046875 L 3.171875 0 L 2.328125 0 L 2.328125 -2.0625 L -0.03125 -5.9375 L 0.875 -5.9375 L 2.78125 -2.8125 L 4.6875 -5.9375 L 5.515625 -5.9375 Z M 3.171875 -2.046875 "/></g></g></g><g fill="#000000" fill-opacity="1"><g transform="translate(233.674653, 8.338272)"><g><path d="M 5.203125 -0.734375 L 5.203125 0 L 0.890625 0 L 0.890625 -5.9375 L 5.078125 -5.9375 L 5.078125 -5.203125 L 1.734375 -5.203125 L 1.734375 -3.375 L 4.71875 -3.375 L 4.71875 -2.65625 L 1.734375 -2.65625 L 1.734375 -0.734375 Z M 5.203125 -0.734375 "/></g></g></g><g fill="#000000" fill-opacity="1"><g transform="translate(243.517395, 8.338272)"><g><path d="M 4.859375 0 L 3.578125 -1.828125 C 3.421875 -1.816406 3.296875 -1.8125 3.203125 -1.8125 L 1.734375 -1.8125 L 1.734375 0 L 0.890625 0 L 0.890625 -5.9375 L 3.203125 -5.9375 C 3.972656 -5.9375 4.578125 -5.753906 5.015625 -5.390625 C 5.460938 -5.023438 5.6875 -4.519531 5.6875 -3.875 C 5.6875 -3.414062 5.570312 -3.023438 5.34375 -2.703125 C 5.113281 -2.378906 4.789062 -2.144531 4.375 -2 L 5.78125 0 Z M 3.1875 -2.53125 C 3.71875 -2.53125 4.125 -2.644531 4.40625 -2.875 C 4.695312 -3.101562 4.84375 -3.4375 4.84375 -3.875 C 4.84375 -4.300781 4.695312 -4.628906 4.40625 -4.859375 C 4.125 -5.085938 3.71875 -5.203125 3.1875 -5.203125 L 1.734375 -5.203125 L 1.734375 -2.53125 Z M 3.1875 -2.53125 "/></g></g></g></g></g></svg>